<svg xmlns="http://www.w3.org/2000/svg" viewBox="0 0 1600 900"><rect width="1600" height="900" fill="#091921"/><polygon fill="#cd0b00" points="957 450 539 900 1396 900"/><polygon fill="#ac2700" points="957 450 872.9 900 1396 900"/><polygon fill="#d92a23" points="-60 900 398 662 816 900"/><polygon fill="#bd5f0e" points="337 900 398 662 816 900"/><polygon fill="#da3238" points="1203 546 1552 900 876 900"/><polygon fill="#b4660f" points="1203 546 1552 900 1162 900"/><polygon fill="#f3b71e" points="641 695 886 900 367 900"/><polygon fill="#b23637" points="587 900 641 695 886 900"/><polygon fill="#b75b2b" points="1710 900 1401 632 1096 900"/><polygon fill="#af6b18" points="1710 900 1401 632 1365 900"/><polygon fill="#b12288" points="1210 900 971 687 725 900"/><polygon fill="#c99529" points="943 900 1210 900 971 687"/></svg>